<?xml version="1.0" encoding="utf-8"?>
<!-- Generator: Adobe Illustrator 16.0.0, SVG Export Plug-In . SVG Version: 6.00 Build 0)  -->
<!DOCTYPE svg PUBLIC "-//W3C//DTD SVG 1.1//EN" "http://www.w3.org/Graphics/SVG/1.1/DTD/svg11.dtd">
<svg version="1.1" id="Layer_1" xmlns="http://www.w3.org/2000/svg" xmlns:xlink="http://www.w3.org/1999/xlink" x="0px" y="0px"
	 width="70px" height="70px" viewBox="0 0 70 70" enable-background="new 0 0 70 70" xml:space="preserve">
<g>
	<g>
		<rect x="41.356" y="47" fill="#F9D3D8" width="1" height="3"/>
	</g>
	<g>
		<path fill="#F9D3D8" d="M42.356,48c0,1.1-0.9,2-2,2H21.54c-1.1,0-0.184-0.9-0.184-2v-9c0-1.1-0.916-2,0.184-2h18.816
			c1.1,0,2,0.9,2,2V48z"/>
	</g>
	<path fill="#212221" d="M52.356,37.625L48.857,34l-3.501,3.625L46.705,39l1.152-1.193V48c0,0.551-0.441,1-0.984,1H23.065
		c-0.543,0-0.984-0.449-0.984-1V38v-2V22c0-0.553,0.441-1,0.984-1h23.808c0.543,0,0.984,0.447,0.984,1v10h2V22
		c0-1.654-1.339-3-2.984-3H23.065c-1.646,0-2.984,1.346-2.984,3v14v2v10c0,1.654,1.339,3,2.984,3h23.808
		c1.646,0,2.984-1.346,2.984-3V37.807L51.009,39L52.356,37.625z"/>
	<path fill="#E01F39" d="M43.708,32.5h-2.483l0.765-2.5h-2.408l-0.615,2.5h-2.73L35.403,30h-1.828l-0.829,2.5h-2.71L29.397,30
		h-2.408l0.766,2.5h-2.047V34h2.506l1.836,6h2.057l2.07-6h0.606l2.089,6h2.058l1.836-6h2.942V32.5z M31.249,37.016l-0.063-0.01
		L30.419,34h1.83L31.249,37.016z M37.833,37.107l-0.061,0.01L36.734,34h1.863L37.833,37.107z"/>
</g>
</svg>
