<?xml version="1.0" encoding="UTF-8"?>
<svg xmlns="http://www.w3.org/2000/svg" xmlns:xlink="http://www.w3.org/1999/xlink" viewBox="0 0 315.22 280.56">
  <defs>
    <style>
      .cls-1 {
        fill: url(#linear-gradient);
      }

      .cls-1, .cls-2, .cls-3 {
        stroke-width: 0px;
      }

      .cls-4 {
        isolation: isolate;
      }

      .cls-2 {
        fill: url(#radial-gradient);
        mix-blend-mode: screen;
      }

      .cls-3 {
        fill: #161616;
      }
    </style>
    <linearGradient id="linear-gradient" x1="0" y1="140.28" x2="315.22" y2="140.28" gradientUnits="userSpaceOnUse">
      <stop offset="0" stop-color="#ffd900"/>
      <stop offset="1" stop-color="#ffad00"/>
    </linearGradient>
    <radialGradient id="radial-gradient" cx="295.75" cy="265.48" fx="295.75" fy="265.48" r="412.55" gradientUnits="userSpaceOnUse">
      <stop offset="0" stop-color="#fff"/>
      <stop offset=".11" stop-color="#bcbcbc"/>
      <stop offset=".23" stop-color="#838383"/>
      <stop offset=".33" stop-color="#545454"/>
      <stop offset=".44" stop-color="#2f2f2f"/>
      <stop offset=".53" stop-color="#151515"/>
      <stop offset=".62" stop-color="#050505"/>
      <stop offset=".68" stop-color="#000"/>
    </radialGradient>
  </defs>
  <g class="cls-4">
    <g id="_레이어_2" data-name="레이어 2">
      <g id="Layer_1" data-name="Layer 1">
        <g>
          <path class="cls-1" d="M132.91,14.26c10.98-19.01,38.42-19.01,49.4,0l64.52,111.76,64.52,111.76c10.98,19.01-2.74,42.78-24.7,42.78H28.56c-21.96,0-35.68-23.77-24.7-42.78l64.52-111.76L132.91,14.26Z"/>
          <path class="cls-3" d="M301.1,243.69L172.06,20.18c-3.02-5.22-8.42-8.34-14.45-8.34s-11.43,3.12-14.45,8.34L14.11,243.69c-3.02,5.22-3.02,11.46,0,16.68,3.02,5.22,8.42,8.34,14.45,8.34h258.09c6.03,0,11.43-3.12,14.45-8.34,3.02-5.22,3.02-11.46,0-16.68ZM280.48,250.73H34.73c-1.74,0-2.82-1.88-1.95-3.38L155.66,34.52c.87-1.5,3.04-1.5,3.91,0l122.88,212.83c.87,1.5-.22,3.38-1.95,3.38Z"/>
          <g>
            <g>
              <circle class="cls-3" cx="157.61" cy="104.18" r="18.9" transform="translate(-27.5 141.96) rotate(-45)"/>
              <circle class="cls-3" cx="157.61" cy="193.54" r="10.15" transform="translate(-40.25 41.39) rotate(-13.28)"/>
              <polygon class="cls-3" points="138.71 104.18 147.65 195.51 167.63 195.08 176.51 104.18 138.71 104.18"/>
            </g>
            <circle class="cls-3" cx="157.61" cy="225.53" r="12.24"/>
          </g>
          <path class="cls-2" d="M26.14,233.34c93.7,0,172.63-63.27,196.39-149.42L182.31,14.26c-10.98-19.01-38.42-19.01-49.4,0l-64.52,111.76L6.94,232.45c6.32.59,12.72.9,19.2.9Z"/>
        </g>
      </g>
    </g>
  </g>
</svg>